<svg xmlns="http://www.w3.org/2000/svg" viewBox="0 0 128 128" id="open-page">
  <g fill="#181616">
    <path fill-rule="evenodd" d="M73.272 28H23.272A5.272 5.272 0 0018 33.272v75.456A5.272 5.272 0 0023.272 114h75.456A5.272 5.272 0 00104 108.728V63.272a2 2 0 10-4 0v45.456a1.272 1.272 0 01-1.272 1.272H23.272a1.272 1.272 0 01-1.272-1.272V33.272a1.272 1.272 0 011.272-1.272h50a2 2 0 000-4z"/>
    <path fill-rule="evenodd" d="M120 8a2 2 0 00-2-2h-20a2 2 0 100 4h15.586L58.293 65.293a2 2 0 102.828 2.828L116 12.828V28a2 2 0 004 0V8z"/>
  </g>
</svg>
